Coordinates
version=1
nRows=23
nColumns=30
inDegrees=yes

Units are S.I. units (second, meters, Newtons, ...)
Angles are in degrees.

endheader
time	floatyaw	floatroll	floatpitch	floatx	floaty	floatz	pro_sup_l	deviation_l	flexion_l	cmc_flexion_l	cmc_abduction_l	mp_flexion_l	ip_flexion_l	2mcp_flexion_l	2mcp_abduction_l	2pm_flexion_l	2md_flexion_l	3mcp_flexion_l	3mcp_abduction_l	3pm_flexion_l	3md_flexion_l	4mcp_flexion_l	4mcp_abduction_l	4pm_flexion_l	4md_flexion_l	5mcp_flexion_l	5mcp_abduction_l	5pm_flexion_l	5md_flexion_l
-0.995000	-160.147433	-5.066637	-73.570646	0.083492	-0.181896	-0.014211	101.348487	3.107958	0.735218	16.498500	7.485435	-24.978722	-41.188870	28.077482	5.835340	41.685109	27.842800	22.668563	3.583945	41.896058	27.857539	11.169551	-4.000002	50.818201	34.438342	-0.914276	-6.401272	60.984457	40.430552
-0.985000	-160.147433	-5.066637	-73.570646	0.083503	-0.181890	-0.014200	101.342469	3.113404	0.732207	16.482299	7.504551	-24.960750	-41.181318	28.111969	5.833042	41.657145	27.811317	22.702340	3.580485	41.871511	27.820472	11.188136	-3.997516	50.801837	34.410468	-0.881384	-6.403083	60.952378	40.401397
-0.975000	-160.147433	-5.066637	-73.570646	0.083515	-0.181887	-0.014188	101.345958	3.123496	0.722857	16.471211	7.508279	-24.932837	-41.146820	28.149869	5.832749	41.621533	27.784615	22.737047	3.576872	41.850274	27.798897	11.217183	-3.994070	50.774437	34.386050	-0.837087	-6.405162	60.910894	40.372618
-0.965000	-160.147433	-5.066637	-73.570646	0.083526	-0.181886	-0.014179	101.356316	3.134738	0.709978	16.466615	7.499632	-24.905102	-41.099994	28.185586	5.834653	41.584153	27.766913	22.763328	3.573922	41.838364	27.797761	11.248218	-3.991149	50.746595	34.371813	-0.790863	-6.407002	60.868319	40.349090
-0.955000	-160.147433	-5.066637	-73.570646	0.083533	-0.181887	-0.014174	101.367919	3.143435	0.697624	16.467787	7.487995	-24.886923	-41.058686	28.216075	5.837763	41.549530	27.757877	22.775957	3.571894	41.837086	27.813456	11.273014	-3.989458	50.725830	34.369977	-0.751172	-6.409066	60.831592	40.333702
-0.945000	-160.147433	-5.066637	-73.570646	0.083537	-0.181887	-0.014172	101.375218	3.147429	0.689560	16.472230	7.484536	-24.883286	-41.036604	28.241068	5.840551	41.520881	27.754181	22.774981	3.570745	41.844000	27.836967	11.287222	-3.988795	50.713968	34.377681	-0.722610	-6.412358	60.805230	40.326753
-0.935000	-160.147433	-5.066637	-73.570646	0.083538	-0.181884	-0.014172	101.375219	3.146743	0.687924	16.476139	7.496620	-24.893179	-41.037821	28.262088	5.841763	41.500797	27.752125	22.764790	3.570581	41.854897	27.858372	11.291844	-3.988450	50.707887	34.388765	-0.705054	-6.417630	60.790924	40.326168
-0.925000	-160.147433	-5.066637	-73.570646	0.083536	-0.181876	-0.014170	101.368532	3.143068	0.692423	16.475334	7.523966	-24.910617	-41.055977	28.281101	5.841135	41.491544	27.749636	22.752041	3.571829	41.865705	27.870707	11.292170	-3.987810	50.702656	34.396850	-0.694856	-6.424708	60.787838	40.328441
-0.915000	-160.147433	-5.066637	-73.570646	0.083532	-0.181866	-0.014166	101.358833	3.138694	0.700391	16.466722	7.558259	-24.927634	-41.078439	28.299444	5.839698	41.494355	27.746682	22.743354	3.574922	41.873500	27.872037	11.294875	-3.986723	50.694778	34.398152	-0.687442	-6.432278	60.793496	40.329992
-0.905000	-160.147433	-5.066637	-73.570646	0.083527	-0.181855	-0.014163	101.351028	3.135506	0.707847	16.449723	7.586240	-24.937999	-41.093218	28.317368	5.839354	41.507928	27.744185	22.743253	3.579759	41.876602	27.865354	11.304502	-3.985456	50.683717	34.392796	-0.680312	-6.438257	60.805000	40.328499
-0.895000	-160.147433	-5.066637	-73.570646	0.083520	-0.181846	-0.014162	101.348901	3.134461	0.711289	16.426810	7.595017	-24.940163	-41.095085	28.334277	5.841839	41.527310	27.742432	22.752540	3.585405	41.874484	27.856653	11.320943	-3.984431	50.671367	34.384254	-0.674972	-6.440646	60.820162	40.323791
-0.885000	-160.147433	-5.066637	-73.570646	0.083511	-0.181843	-0.014165	101.353296	3.135555	0.709396	16.402590	7.577840	-24.937960	-41.087603	28.349441	5.847671	41.544615	27.740241	22.767683	3.590325	41.868329	27.852123	11.339440	-3.983980	50.660450	34.377435	-0.676269	-6.438526	60.838061	40.317979
-0.875000	-160.147433	-5.066637	-73.570646	0.083503	-0.181846	-0.014172	101.361614	3.138028	0.703691	16.381680	7.538307	-24.938344	-41.079944	28.362646	5.855807	41.552134	27.735565	22.781845	3.593028	41.862089	27.855642	11.353268	-3.984264	50.653155	34.376423	-0.688912	-6.432751	60.858917	40.314759
-0.865000	-160.147433	-5.066637	-73.570646	0.083495	-0.181853	-0.014180	101.368832	3.140594	0.697802	16.366515	7.490714	-24.947185	-41.080584	28.374167	5.864217	41.546640	27.727192	22.787489	3.592769	41.862739	27.867478	11.357434	-3.985238	50.650656	34.382824	-0.713380	-6.425928	60.883572	40.318134
-0.855000	-160.147433	-5.066637	-73.570646	0.083489	-0.181860	-0.014185	101.369647	3.141745	0.695769	16.356459	7.455010	-24.965708	-41.092152	28.383980	5.870944	41.532092	27.716402	22.779464	3.589890	41.878297	27.884558	11.350995	-3.986616	50.653299	34.395331	-0.744447	-6.421492	60.912866	40.331005
-0.845000	-160.147433	-5.066637	-73.570646	0.083485	-0.181862	-0.014184	101.360873	3.140283	0.700273	16.348716	7.447665	-24.989857	-41.110677	28.390956	5.874905	41.518413	27.707426	22.757129	3.585641	41.913680	27.902114	11.336725	-3.987892	50.660850	34.410605	-0.773756	-6.422132	60.946832	40.353985
-0.835000	-160.147433	-5.066637	-73.570646	0.083484	-0.181858	-0.014177	101.342853	3.135867	0.711618	16.340230	7.473045	-25.012798	-41.128854	28.392900	5.876006	41.516417	27.706230	22.724578	3.581616	41.966498	27.915985	11.318873	-3.988497	50.672310	34.424977	-0.794655	-6.428354	60.983740	40.384873
-0.825000	-160.147433	-5.066637	-73.570646	0.083485	-0.181849	-0.014165	101.318924	3.129100	0.727854	16.329151	7.520680	-25.028701	-41.140200	28.387606	5.874706	41.531703	27.718052	22.688893	3.579121	42.025740	27.924431	11.300746	-3.988052	50.685415	34.436066	-0.805897	-6.438045	61.019487	40.419098
-0.815000	-160.147433	-5.066637	-73.570646	0.083489	-0.181838	-0.014152	101.293228	3.120996	0.745865	16.315078	7.570571	-25.035545	-41.141344	28.374268	5.871567	41.561170	27.744815	22.657254	3.578806	42.075021	27.928533	11.283486	-3.986546	50.696608	34.443598	-0.811783	-6.447461	61.048118	40.451212
-0.805000	-160.147433	-5.066637	-73.570646	0.083495	-0.181829	-0.014143	101.268455	3.112343	0.762723	16.298424	7.603679	-25.035634	-41.131948	28.354312	5.867153	41.594343	27.783872	22.634206	3.580659	42.099379	27.931156	11.266351	-3.984350	50.702243	34.449272	-0.818896	-6.453124	61.063725	40.476974
-0.795000	-160.147433	-5.066637	-73.570646	0.083503	-0.181826	-0.014139	101.245205	3.103614	0.776660	16.279790	7.611399	-25.033824	-41.113380	28.331073	5.862150	41.618704	27.828925	22.620208	3.584237	42.092288	27.935449	11.247948	-3.982112	50.700686	34.455924	-0.831707	-6.453547	61.062871	40.495100
-0.785000	-160.147433	-5.066637	-73.570646	0.083510	-0.181828	-0.014141	101.223290	3.095495	0.787408	16.259892	7.598600	-25.034527	-41.087513	28.308479	5.857355	41.625811	27.872548	22.611941	3.588893	42.059059	27.943838	11.227456	-3.980583	50.693856	34.466241	-0.849881	-6.449717	61.046198	40.507547
-0.775000	-160.147433	-5.066637	-73.570646	0.083518	-0.181834	-0.014143	101.203684	3.089375	0.795988	16.239930	7.579263	-25.039217	-41.056644	28.289468	5.853480	41.614794	27.908640	22.604133	3.593888	42.014584	27.957600	11.205086	-3.980418	50.686958	34.481327	-0.868911	-6.444143	61.018471	40.517836
